Coordinates
version=1
nRows=37
nColumns=38
inDegrees=no

Units are S.I. units (second, meters, Newtons, ...)
If the header above contains a line with 'inDegrees', this indicates whether rotational values are in degrees (yes) or radians (no).

endheader
time	pelvis_tilt	pelvis_list	pelvis_rotation	pelvis_tx	pelvis_ty	pelvis_tz	hip_flexion_r	hip_adduction_r	hip_rotation_r	knee_angle_r	ankle_angle_r	subtalar_angle_r	mtp_angle_r	hip_flexion_l	hip_adduction_l	hip_rotation_l	knee_angle_l	ankle_angle_l	subtalar_angle_l	mtp_angle_l	lumbar_extension	lumbar_bending	lumbar_rotation	arm_flex_r	arm_add_r	arm_rot_r	elbow_flex_r	pro_sup_r	wrist_flex_r	wrist_dev_r	arm_flex_l	arm_add_l	arm_rot_l	elbow_flex_l	pro_sup_l	wrist_flex_l	wrist_dev_l
0	0.0680755	1.33056	-1.56456	1.06705	1.41016	0.938394	-0.344821	-0.0728044	-0.158887	0.856253	-0.428486	0	0	-0.0130007	0.0186847	-0.240969	0.266128	-0.276586	0	0	-0.335862	0.00355716	-0.0433267	-0.310666	-0.169848	-0.409036	0.815795	0.512026	0	0	-0.130798	-0.295283	0.286085	0.656131	1.31884	0	0
0.01	0.0931538	1.32226	-1.58323	1.06939	1.39948	0.939714	-0.326895	-0.0879733	-0.164452	0.910874	-0.449726	0	0	-0.0352257	0.0253626	-0.245	0.266561	-0.271744	0	0	-0.34109	-0.00193173	-0.0514406	-0.31449	-0.171672	-0.405286	0.81955	0.507693	0	0	-0.131912	-0.306064	0.298865	0.669326	1.32592	0	0
0.02	0.112647	1.31403	-1.59671	1.07162	1.38897	0.941046	-0.310381	-0.100352	-0.168067	0.956423	-0.481025	0	0	-0.0592089	0.0313214	-0.246292	0.262864	-0.264667	0	0	-0.347842	-0.00525527	-0.0604312	-0.317757	-0.174047	-0.401509	0.825795	0.502735	0	0	-0.130629	-0.314361	0.309216	0.682863	1.32693	0	0
0.03	0.123371	1.3068	-1.60294	1.07366	1.37881	0.942374	-0.289757	-0.108802	-0.164253	1.00792	-0.509284	0	0	-0.0823591	0.0346894	-0.246526	0.258696	-0.257583	0	0	-0.354369	-0.00591928	-0.0681973	-0.319841	-0.176887	-0.398675	0.832457	0.498243	0	0	-0.126311	-0.319993	0.318313	0.692748	1.32646	0	0
0.04	0.128526	1.29955	-1.60413	1.07552	1.36884	0.94376	-0.270128	-0.115576	-0.163861	1.05005	-0.537117	0	0	-0.106018	0.0363196	-0.24645	0.252406	-0.251684	0	0	-0.361061	-0.00520994	-0.0747609	-0.321828	-0.180373	-0.395203	0.83865	0.495117	0	0	-0.119609	-0.325187	0.329224	0.700219	1.32937	0	0
0.05	0.127337	1.29365	-1.60022	1.07722	1.35925	0.945235	-0.246097	-0.120222	-0.160246	1.09501	-0.550523	0	0	-0.127525	0.0358479	-0.247496	0.245261	-0.248499	0	0	-0.367269	-0.00329563	-0.0797405	-0.322267	-0.184556	-0.391186	0.842325	0.493837	0	0	-0.110449	-0.329389	0.339144	0.705034	1.33116	0	0
0.06	0.120931	1.28915	-1.59252	1.07877	1.34982	0.946739	-0.219475	-0.123669	-0.156266	1.13759	-0.547998	0	0	-0.147735	0.033698	-0.248708	0.236621	-0.247	0	0	-0.372194	-0.00036695	-0.0832624	-0.321246	-0.188483	-0.388022	0.843873	0.491042	0	0	-0.0995944	-0.333036	0.349755	0.707878	1.33166	0	0
0.07	0.109603	1.28564	-1.58044	1.08028	1.34055	0.94827	-0.191944	-0.125305	-0.152278	1.1755	-0.532592	0	0	-0.166788	0.0301304	-0.249695	0.227511	-0.246724	0	0	-0.37599	0.00412566	-0.0861606	-0.318977	-0.192038	-0.386066	0.843645	0.486182	0	0	-0.0870622	-0.335957	0.361435	0.707924	1.33266	0	0
0.08	0.0956182	1.28263	-1.56551	1.08177	1.33155	0.949786	-0.16402	-0.12547	-0.149232	1.20897	-0.508948	0	0	-0.184783	0.0259218	-0.249873	0.218828	-0.246613	0	0	-0.379387	0.00980906	-0.088047	-0.31725	-0.195617	-0.384347	0.843638	0.478814	0	0	-0.0713802	-0.338442	0.376348	0.704949	1.33378	0	0
0.09	0.0794597	1.2809	-1.54947	1.08316	1.32248	0.95121	-0.134929	-0.124364	-0.145814	1.23738	-0.486213	0	0	-0.201788	0.0214674	-0.252327	0.210099	-0.245831	0	0	-0.380888	0.0160975	-0.0883016	-0.316409	-0.199643	-0.382155	0.843127	0.471915	0	0	-0.0541977	-0.339618	0.392099	0.699057	1.33566	0	0
0.1	0.0630814	1.27978	-1.53261	1.08457	1.31344	0.952526	-0.105983	-0.12256	-0.143813	1.25969	-0.467052	0	0	-0.218121	0.0171778	-0.254173	0.202073	-0.243799	0	0	-0.381395	0.0227972	-0.0880558	-0.316737	-0.204154	-0.379259	0.842416	0.467022	0	0	-0.0354024	-0.3402	0.409067	0.691606	1.33814	0	0
0.11	0.0457701	1.27916	-1.51462	1.08592	1.30436	0.953685	-0.0769693	-0.119921	-0.142499	1.27694	-0.454656	0	0	-0.23384	0.012755	-0.25635	0.194388	-0.240804	0	0	-0.381018	0.029929	-0.0872216	-0.318486	-0.208721	-0.37652	0.84239	0.463503	0	0	-0.0158653	-0.340698	0.426826	0.683865	1.34045	0	0
0.12	0.0275887	1.27819	-1.49543	1.08722	1.29534	0.954772	-0.0491442	-0.116515	-0.141938	1.28875	-0.448291	0	0	-0.249411	0.00749215	-0.258682	0.187761	-0.237939	0	0	-0.381308	0.037475	-0.0878464	-0.319348	-0.212749	-0.374354	0.842378	0.462362	0	0	0.00176636	-0.341563	0.440366	0.678885	1.34336	0	0
0.13	0.00902905	1.27757	-1.47501	1.08855	1.28641	0.95572	-0.0219123	-0.112652	-0.142525	1.29543	-0.442444	0	0	-0.263917	0.0017009	-0.259833	0.181436	-0.234839	0	0	-0.380916	0.0456491	-0.0879218	-0.321327	-0.216829	-0.372331	0.842951	0.461336	0	0	0.0207911	-0.342253	0.455317	0.673328	1.34755	0	0
0.14	-0.00988289	1.27726	-1.45382	1.08988	1.27753	0.956519	0.00490254	-0.1086	-0.143116	1.29631	-0.438622	0	0	-0.277277	-0.00464786	-0.260471	0.175663	-0.231836	0	0	-0.379916	0.054193	-0.0876864	-0.323601	-0.220668	-0.370923	0.843562	0.46022	0	0	0.0408071	-0.342065	0.470136	0.666852	1.35213	0	0
0.15	-0.0294921	1.27702	-1.43161	1.09118	1.26865	0.957199	0.0303568	-0.103621	-0.143537	1.2923	-0.433076	0	0	-0.289992	-0.0116902	-0.261076	0.170292	-0.229026	0	0	-0.378435	0.0631531	-0.0873757	-0.325817	-0.224237	-0.370306	0.844077	0.459052	0	0	0.0611655	-0.340809	0.483873	0.659785	1.3567	0	0
0.16	-0.0486695	1.27596	-1.40973	1.09245	1.25977	0.957818	0.0533744	-0.0983584	-0.144271	1.28416	-0.424495	0	0	-0.303455	-0.0187769	-0.26107	0.164857	-0.226221	0	0	-0.37753	0.072104	-0.0867932	-0.32796	-0.227439	-0.370242	0.844783	0.457936	0	0	0.0812644	-0.338737	0.495096	0.653196	1.36025	0	0
0.17	-0.0646178	1.27354	-1.39041	1.09379	1.25101	0.958395	0.0737172	-0.0945042	-0.146486	1.27332	-0.413624	0	0	-0.31824	-0.0252326	-0.260833	0.159885	-0.223417	0	0	-0.378338	0.0803332	-0.0873873	-0.328911	-0.230159	-0.370724	0.845451	0.456867	0	0	0.0997028	-0.337271	0.502465	0.649973	1.36219	0	0
0.18	-0.0782002	1.27053	-1.37336	1.09518	1.24231	0.958882	0.0917891	-0.0912671	-0.149297	1.26023	-0.397941	0	0	-0.333777	-0.0309346	-0.261388	0.155066	-0.220037	0	0	-0.379926	0.0881433	-0.0884045	-0.328997	-0.23303	-0.370711	0.846163	0.45642	0	0	0.117296	-0.335201	0.506621	0.648071	1.36263	0	0
0.19	-0.0893547	1.2689	-1.3591	1.09641	1.23359	0.959121	0.11012	-0.0887094	-0.151267	1.24545	-0.372632	0	0	-0.348103	-0.0356589	-0.261989	0.15045	-0.213959	0	0	-0.39271	0.105925	-0.112413	-0.323485	-0.239745	-0.364638	0.873271	0.464629	0	0	0.110428	-0.336529	0.465068	0.666941	1.36943	0	0
0.2	-0.101344	1.26906	-1.34485	1.0977	1.22494	0.959186	0.128608	-0.085894	-0.15199	1.22495	-0.357903	0	0	-0.360164	-0.0396462	-0.262636	0.146267	-0.210375	0	0	-0.391444	0.11343	-0.117713	-0.31908	-0.243759	-0.361222	0.873503	0.467982	0	0	0.120423	-0.332528	0.45015	0.668819	1.37508	0	0
0.21	-0.11101	1.26863	-1.33269	1.09886	1.21642	0.95907	0.144094	-0.0828168	-0.152019	1.19995	-0.340153	0	0	-0.372415	-0.0433103	-0.262771	0.142751	-0.205752	0	0	-0.390439	0.118265	-0.120584	-0.314304	-0.24664	-0.358209	0.870552	0.470049	0	0	0.1318	-0.329927	0.438456	0.672932	1.38012	0	0
0.22	-0.184075	1.28035	-1.25881	1.10192	1.20625	0.954196	0.179593	-0.0696816	-0.157222	1.18681	-0.306764	0	0	-0.283047	-0.165549	-0.557893	0.429501	-0.130025	0	0	-0.368891	0.143582	-0.117618	-0.333877	-0.256743	-0.364353	0.900325	0.464274	0	0	0.131429	-0.321682	0.41778	0.693154	1.38874	0	0
0.23	-0.192945	1.28211	-1.24789	1.10273	1.19764	0.953679	0.19416	-0.065777	-0.154258	1.15366	-0.293943	0	0	-0.292279	-0.168509	-0.557694	0.427011	-0.122526	0	0	-0.365708	0.146609	-0.119077	-0.329564	-0.258493	-0.361955	0.897366	0.463454	0	0	0.144047	-0.319952	0.412076	0.697321	1.3877	0	0
0.24	-0.201227	1.28357	-1.23784	1.10339	1.189	0.953112	0.205724	-0.060666	-0.149139	1.11463	-0.27992	0	0	-0.301758	-0.171478	-0.556811	0.424546	-0.11431	0	0	-0.363041	0.149138	-0.121032	-0.323756	-0.2596	-0.359421	0.89336	0.461929	0	0	0.155433	-0.318392	0.404619	0.702615	1.38554	0	0
0.25	-0.2072	1.28495	-1.23017	1.10394	1.18036	0.952443	0.21452	-0.0558828	-0.143439	1.06995	-0.270134	0	0	-0.311138	-0.173953	-0.556137	0.422695	-0.108375	0	0	-0.361133	0.151036	-0.12279	-0.317873	-0.26033	-0.356985	0.890033	0.460457	0	0	0.16668	-0.317638	0.398764	0.708919	1.38319	0	0
0.26	-0.212112	1.2871	-1.22442	1.10432	1.17169	0.951612	0.221301	-0.0510284	-0.136157	1.01861	-0.263098	0	0	-0.319706	-0.175708	-0.555976	0.421304	-0.10216	0	0	-0.358977	0.151945	-0.12378	-0.312071	-0.26099	-0.354358	0.886974	0.459245	0	0	0.177418	-0.317101	0.39304	0.715933	1.38073	0	0
0.27	-0.215498	1.29015	-1.22078	1.10455	1.16291	0.950588	0.226784	-0.0473029	-0.129282	0.962962	-0.258529	0	0	-0.32751	-0.176606	-0.556006	0.420183	-0.0954718	0	0	-0.35621	0.151736	-0.124269	-0.306762	-0.261478	-0.351914	0.884362	0.458407	0	0	0.187523	-0.316688	0.387416	0.723602	1.37839	0	0
0.28	-0.148627	1.28073	-1.28633	1.10272	1.15537	0.954074	0.204463	-0.054203	-0.117907	0.884625	-0.26651	0	0	-0.435771	-0.0606011	-0.26626	0.136227	-0.146924	0	0	-0.375469	0.130388	-0.133559	-0.275216	-0.255497	-0.335955	0.849209	0.464972	0	0	0.201271	-0.321076	0.373552	0.721922	1.38441	0	0
0.29	-0.144546	1.28406	-1.29101	1.10285	1.14641	0.952697	0.205457	-0.0542878	-0.115606	0.823706	-0.262261	0	0	-0.443884	-0.0591458	-0.267125	0.134914	-0.150908	0	0	-0.37393	0.128452	-0.133678	-0.271512	-0.255605	-0.334815	0.850434	0.465545	0	0	0.209332	-0.320699	0.366416	0.73232	1.38388	0	0
0.3	-0.139385	1.28945	-1.29721	1.10293	1.13727	0.951021	0.207149	-0.0560216	-0.116039	0.761891	-0.25602	0	0	-0.449373	-0.0567379	-0.267468	0.13579	-0.146922	0	0	-0.369892	0.125354	-0.133008	-0.268511	-0.255791	-0.333872	0.85107	0.464926	0	0	0.217102	-0.320313	0.360632	0.741758	1.38438	0	0
0.31	-0.133185	1.29605	-1.30459	1.10291	1.12794	0.949128	0.207932	-0.0585778	-0.119542	0.697198	-0.247886	0	0	-0.453904	-0.0539352	-0.267194	0.137173	-0.140185	0	0	-0.364318	0.12144	-0.13207	-0.266261	-0.256037	-0.332685	0.851687	0.463305	0	0	0.224674	-0.319718	0.35599	0.750163	1.38628	0	0
0.32	-0.127774	1.30301	-1.31139	1.10275	1.11837	0.947062	0.207616	-0.0605697	-0.125308	0.630323	-0.239451	0	0	-0.458463	-0.0515352	-0.267524	0.138596	-0.132308	0	0	-0.357836	0.117495	-0.130594	-0.265352	-0.256315	-0.331432	0.853064	0.460585	0	0	0.231725	-0.318838	0.351744	0.757819	1.38976	0	0
0.33	-0.121556	1.30975	-1.31903	1.1025	1.10864	0.944957	0.20517	-0.0618349	-0.131993	0.559907	-0.233728	0	0	-0.463538	-0.0491949	-0.268442	0.139848	-0.123427	0	0	-0.351651	0.113146	-0.129182	-0.264873	-0.256734	-0.3294	0.854629	0.456892	0	0	0.237449	-0.319092	0.34761	0.766908	1.39157	0	0
0.34	-0.113841	1.31594	-1.32779	1.10217	1.09877	0.94289	0.199438	-0.0628305	-0.139289	0.485281	-0.23349	0	0	-0.469576	-0.0470023	-0.269028	0.140595	-0.115091	0	0	-0.345927	0.108762	-0.127971	-0.265226	-0.257456	-0.326742	0.85683	0.451785	0	0	0.242831	-0.318723	0.343599	0.774746	1.39565	0	0
0.35	-0.19219	1.33986	-1.25205	1.10367	1.08775	0.935894	0.223995	-0.0523713	-0.14813	0.429184	-0.226024	0	0	-0.37275	-0.161211	-0.558882	0.420021	-0.0349532	0	0	-0.313072	0.125088	-0.118794	-0.289582	-0.267342	-0.33143	0.887157	0.434678	0	0	0.242773	-0.310309	0.341251	0.787563	1.40059	0	0
0.36	-0.191172	1.34944	-1.25452	1.10304	1.07763	0.933609	0.21991	-0.0516281	-0.151255	0.354426	-0.22663	0	0	-0.374772	-0.159935	-0.559261	0.421803	-0.0264089	0	0	-0.303007	0.120689	-0.116168	-0.290726	-0.267879	-0.329119	0.886828	0.42795	0	0	0.248533	-0.307886	0.338882	0.78953	1.40712	0	0
